<svg width="100" height="100" viewBox="0 0 100 100" fill="none" xmlns="http://www.w3.org/2000/svg">
  <path d="M49.9948 94.7916C47.3698 94.7916 44.9114 93.7918 43.0781 91.9168L36.7448 85.5834C36.2448 85.0834 34.9115 84.5418 34.2448 84.5418H25.2448C19.8281 84.5418 15.4531 80.1663 15.4531 74.7497V65.75C15.4531 65.0834 14.9114 63.7501 14.4114 63.2501L8.07814 56.9167C6.2448 55.0834 5.20312 52.6249 5.20312 49.9999C5.20312 47.3749 6.20314 44.9164 8.07814 43.0831L14.4114 36.7497C14.9114 36.2497 15.4531 34.9165 15.4531 34.2498V25.2502C15.4531 19.8335 19.8281 15.4581 25.2448 15.4581H34.2448C34.9115 15.4581 36.2448 14.9164 36.7448 14.4164L43.0781 8.08301C46.7448 4.41634 53.2448 4.41634 56.9115 8.08301L63.2448 14.4164C63.7448 14.9164 65.0781 15.4581 65.7448 15.4581H74.7448C80.1615 15.4581 84.5365 19.8335 84.5365 25.2502V34.2498C84.5365 34.9165 85.0782 36.2497 85.5782 36.7497L91.9114 43.0831C93.7448 44.9164 94.7865 47.3749 94.7865 49.9999C94.7865 52.6249 93.7864 55.0834 91.9114 56.9167L85.5782 63.2501C85.0782 63.7501 84.5365 65.0834 84.5365 65.75V74.7497C84.5365 80.1663 80.1615 84.5418 74.7448 84.5418H65.7448C65.0781 84.5418 63.7448 85.0834 63.2448 85.5834L56.9115 91.9168C55.0781 93.7918 52.6198 94.7916 49.9948 94.7916ZM18.8281 58.8332C20.4947 60.4999 21.7031 63.4167 21.7031 65.75V74.7497C21.7031 76.708 23.2864 78.2918 25.2448 78.2918H34.2448C36.5781 78.2918 39.4948 79.4998 41.1615 81.1665L47.4948 87.4999C48.8281 88.8333 51.1615 88.8333 52.4948 87.4999L58.8281 81.1665C60.4948 79.4998 63.4114 78.2918 65.7448 78.2918H74.7448C76.7031 78.2918 78.2865 76.708 78.2865 74.7497V65.75C78.2865 63.4167 79.4948 60.4999 81.1615 58.8332L87.4948 52.4998C88.1615 51.8332 88.5365 50.9583 88.5365 49.9999C88.5365 49.0416 88.1615 48.1667 87.4948 47.5L81.1615 41.1666C79.4948 39.4999 78.2865 36.5831 78.2865 34.2498V25.2502C78.2865 23.2918 76.7031 21.7081 74.7448 21.7081H65.7448C63.4114 21.7081 60.4948 20.5 58.8281 18.8333L52.4948 12.4999C51.1615 11.1666 48.8281 11.1666 47.4948 12.4999L41.1615 18.8333C39.4948 20.5 36.5781 21.7081 34.2448 21.7081H25.2448C23.2864 21.7081 21.7031 23.2918 21.7031 25.2502V34.2498C21.7031 36.5831 20.4947 39.4999 18.8281 41.1666L12.4948 47.5C11.8281 48.1667 11.4531 49.0416 11.4531 49.9999C11.4531 50.9583 11.8281 51.8332 12.4948 52.4998L18.8281 58.8332Z" fill="#333333" />
  <path d="M62.4974 66.6668C60.1641 66.6668 58.2891 64.7918 58.2891 62.5002C58.2891 60.2085 60.1641 58.3335 62.4557 58.3335C64.7474 58.3335 66.6224 60.2085 66.6224 62.5002C66.6224 64.7918 64.7891 66.6668 62.4974 66.6668Z" fill="#333333" />
  <path d="M37.5365 41.6668C35.2032 41.6668 33.3281 39.7918 33.3281 37.5002C33.3281 35.2085 35.2031 33.3335 37.4948 33.3335C39.7865 33.3335 41.6615 35.2085 41.6615 37.5002C41.6615 39.7918 39.8282 41.6668 37.5365 41.6668Z" fill="#333333" />
  <path d="M37.4974 65.625C36.7057 65.625 35.9141 65.3334 35.2891 64.7084C34.0807 63.5001 34.0807 61.4998 35.2891 60.2915L60.2891 35.2915C61.4974 34.0832 63.4974 34.0832 64.7057 35.2915C65.9141 36.4998 65.9141 38.5001 64.7057 39.7084L39.7057 64.7084C39.0807 65.3334 38.2891 65.625 37.4974 65.625Z" fill="#333333" />
</svg>