<svg width="80" height="80" viewBox="0 0 80 80" fill="none" xmlns="http://www.w3.org/2000/svg">
  <rect width="80" height="80" rx="40" fill="#333333" />
  <path d="M55.0846 56.1772H25.918C25.3201 56.1772 24.8242 55.6814 24.8242 55.0835C24.8242 54.4856 25.3201 53.9897 25.918 53.9897H55.0846C55.6826 53.9897 56.1784 54.4856 56.1784 55.0835C56.1784 55.6814 55.6826 56.1772 55.0846 56.1772Z" fill="white" />
  <path d="M28.3945 55.0835H26.207L26.28 37.5397C26.28 36.3001 26.8487 35.1481 27.8258 34.3897L38.0341 26.4418C39.4779 25.3189 41.505 25.3189 42.9633 26.4418L53.1716 34.3751C54.1341 35.1335 54.7175 36.3147 54.7175 37.5397V55.0835H52.53V37.5543C52.53 37.0001 52.2674 36.4606 51.8299 36.1106L41.6216 28.1772C40.9654 27.6668 40.0466 27.6668 39.3758 28.1772L29.1675 36.1252C28.73 36.4606 28.4675 37.0001 28.4675 37.5543L28.3945 55.0835Z" fill="white" />
  <path d="M47.7904 56.1769H33.207C32.6091 56.1769 32.1133 55.6811 32.1133 55.0832V41.229C32.1133 39.4207 33.5862 37.9478 35.3945 37.9478H45.6029C47.4112 37.9478 48.8841 39.4207 48.8841 41.229V55.0832C48.8841 55.6811 48.3883 56.1769 47.7904 56.1769ZM34.3008 53.9894H46.6966V41.229C46.6966 40.6311 46.2008 40.1353 45.6029 40.1353H35.3945C34.7966 40.1353 34.3008 40.6311 34.3008 41.229V53.9894Z" fill="white" />
  <path d="M37.582 49.979C36.9841 49.979 36.4883 49.4832 36.4883 48.8853V46.6978C36.4883 46.0998 36.9841 45.604 37.582 45.604C38.1799 45.604 38.6758 46.0998 38.6758 46.6978V48.8853C38.6758 49.4832 38.1799 49.979 37.582 49.979Z" fill="white" />
  <path d="M42.6875 35.0312H38.3125C37.7146 35.0312 37.2188 34.5354 37.2188 33.9375C37.2188 33.3396 37.7146 32.8438 38.3125 32.8438H42.6875C43.2854 32.8438 43.7812 33.3396 43.7812 33.9375C43.7812 34.5354 43.2854 35.0312 42.6875 35.0312Z" fill="white" />
</svg>