<svg width="150" height="149" viewBox="0 0 150 149" fill="none" xmlns="http://www.w3.org/2000/svg">
  <path d="M50 35.8925C47.4375 35.8925 45.3125 33.7944 45.3125 31.2642V12.7509C45.3125 10.2207 47.4375 8.12256 50 8.12256C52.5625 8.12256 54.6875 10.2207 54.6875 12.7509V31.2642C54.6875 33.7944 52.5625 35.8925 50 35.8925Z" fill="#333333" />
  <path d="M100 35.8925C97.4375 35.8925 95.3125 33.7944 95.3125 31.2642V12.7509C95.3125 10.2207 97.4375 8.12256 100 8.12256C102.562 8.12256 104.688 10.2207 104.688 12.7509V31.2642C104.688 33.7944 102.562 35.8925 100 35.8925Z" fill="#333333" />
  <path d="M53.125 89.8895C51.5 89.8895 49.875 89.2107 48.6875 88.0999C47.5625 86.9274 46.875 85.3846 46.875 83.7184C46.875 82.9162 47.0625 82.1139 47.375 81.3734C47.6875 80.6328 48.125 79.9541 48.6875 79.337C51 77.0537 55.1875 77.0537 57.5625 79.337C58.6875 80.5095 59.375 82.1139 59.375 83.7184C59.375 84.0887 59.3125 84.5207 59.25 84.9527C59.1875 85.323 59.0625 85.6932 58.875 86.0635C58.75 86.4337 58.5625 86.804 58.3125 87.1742C58.0625 87.4828 57.8125 87.7913 57.5625 88.0999C56.375 89.2107 54.75 89.8895 53.125 89.8895Z" fill="#333333" />
  <path d="M75 89.89C74.1875 89.89 73.375 89.705 72.625 89.3964C71.8125 89.0878 71.1875 88.6557 70.5625 88.1003C69.4375 86.9278 68.75 85.3851 68.75 83.7189C68.75 82.9167 68.9375 82.1144 69.25 81.3739C69.5625 80.6333 70 79.9546 70.5625 79.3375C71.1875 78.7821 71.8125 78.35 72.625 78.0414C74.9375 77.1157 77.6875 77.6096 79.4375 79.3375C80.5625 80.51 81.25 82.1144 81.25 83.7189C81.25 84.0892 81.1875 84.5212 81.125 84.9532C81.0625 85.3235 80.9375 85.6937 80.75 86.064C80.625 86.4342 80.4375 86.8044 80.1875 87.1747C80 87.4833 79.6875 87.7918 79.4375 88.1003C78.25 89.2111 76.625 89.89 75 89.89Z" fill="#333333" />
  <path d="M53.125 111.489C52.3125 111.489 51.5 111.304 50.75 110.995C49.9375 110.687 49.25 110.254 48.6875 109.699C48.125 109.144 47.6875 108.465 47.375 107.663C47.0625 106.922 46.875 106.12 46.875 105.318C46.875 104.515 47.0625 103.713 47.375 102.973C47.6875 102.17 48.125 101.492 48.6875 100.936C49.25 100.381 49.9375 99.9486 50.75 99.6401C52.25 99.0229 54 98.9612 55.5 99.6401C56.3125 99.9486 57 100.381 57.5625 100.936C58.125 101.492 58.5625 102.17 58.875 102.973C59.1875 103.713 59.375 104.515 59.375 105.318C59.375 106.12 59.1875 106.922 58.875 107.663C58.5625 108.465 58.125 109.144 57.5625 109.699C57 110.254 56.3125 110.687 55.5 110.995C54.75 111.304 53.9375 111.489 53.125 111.489Z" fill="#333333" />
  <path d="M128.125 61.1322H21.875C19.3125 61.1322 17.1875 59.034 17.1875 56.5038C17.1875 53.9737 19.3125 51.8755 21.875 51.8755H128.125C130.688 51.8755 132.812 53.9737 132.812 56.5038C132.812 59.034 130.688 61.1322 128.125 61.1322Z" fill="#333333" />
  <path d="M112.5 146.973C105.188 146.973 98.25 144.381 92.9375 139.629C90.6875 137.778 88.6875 135.433 87.0625 132.717C84.3125 128.274 82.8125 123.029 82.8125 117.66C82.8125 101.492 96.125 88.3472 112.5 88.3472C121 88.3472 129.125 91.988 134.75 98.2826C139.562 103.713 142.188 110.563 142.188 117.66C142.188 123.029 140.687 128.274 137.875 132.779C132.625 141.542 122.875 146.973 112.5 146.973ZM112.5 97.6038C101.312 97.6038 92.1875 106.614 92.1875 117.66C92.1875 121.301 93.1875 124.88 95.125 127.966C96.1875 129.817 97.5625 131.36 99.0625 132.656C102.812 135.988 107.5 137.716 112.5 137.716C119.688 137.716 126.187 134.075 129.875 128.027C131.812 124.88 132.812 121.363 132.812 117.66C132.812 112.846 131 108.156 127.75 104.392C123.875 100.072 118.312 97.6038 112.5 97.6038Z" fill="#333333" />
  <path d="M108.934 128.397C107.746 128.397 106.559 127.965 105.621 127.04L99.4336 120.93C97.6211 119.141 97.6211 116.179 99.4336 114.389C101.246 112.599 104.246 112.599 106.059 114.389L109.059 117.351L119.059 108.218C120.934 106.49 123.934 106.614 125.684 108.465C127.434 110.316 127.309 113.278 125.434 115.006L112.121 127.163C111.184 127.966 110.059 128.397 108.934 128.397Z" fill="#333333" />
  <path d="M96.0625 140.801H50C27.1875 140.801 14.0625 127.842 14.0625 105.317V52.863C14.0625 30.3385 27.1875 17.3792 50 17.3792H100C122.812 17.3792 135.938 30.3385 135.938 52.863V101.368C135.938 103.281 134.75 105.009 132.875 105.688C131.063 106.367 129 105.873 127.688 104.392C123.812 100.072 118.25 97.6036 112.437 97.6036C101.25 97.6036 92.125 106.613 92.125 117.66C92.125 121.301 93.125 124.88 95.0625 127.965C96.125 129.817 97.5 131.359 99 132.655C100.5 133.89 101.062 135.926 100.375 137.778C99.8125 139.567 98.0625 140.801 96.0625 140.801ZM50 26.6358C32.125 26.6358 23.4375 35.2137 23.4375 52.863V105.317C23.4375 122.967 32.125 131.545 50 131.545H86.375C84.0625 127.348 82.8125 122.597 82.8125 117.66C82.8125 101.491 96.125 88.3469 112.5 88.3469C117.438 88.3469 122.312 89.5812 126.562 91.8645V52.863C126.562 35.2137 117.875 26.6358 100 26.6358H50Z" fill="#333333" />
</svg>