<svg width="80" height="80" viewBox="0 0 80 80" fill="none" xmlns="http://www.w3.org/2000/svg">
  <rect width="80" height="80" rx="40" fill="#333333" />
  <path d="M48.9018 58C48.033 58 46.9182 57.7213 45.5248 56.9016L40.6231 54C40.1149 53.7049 39.1313 53.7049 38.6395 54L33.7215 56.9016C30.8199 58.623 29.1149 57.9344 28.3445 57.377C27.5904 56.8197 26.41 55.3934 27.1805 52.1148L28.3445 47.082C28.4756 46.5574 28.2133 45.6557 27.8199 45.2623L23.7543 41.1967C21.7215 39.1639 21.8854 37.4262 22.1641 36.5738C22.4428 35.7213 23.3281 34.2131 26.1477 33.7377L31.3772 32.8689C31.869 32.7869 32.574 32.2623 32.7871 31.8197L35.6887 26.0328C37.0002 23.3934 38.7215 23 39.6231 23C40.5248 23 42.2461 23.3934 43.5576 26.0328L46.4428 31.8033C46.6723 32.2459 47.3772 32.7705 47.869 32.8525L53.0986 33.7213C55.9346 34.1967 56.8199 35.7049 57.0822 36.5574C57.3445 37.4098 57.5084 39.1475 55.492 41.1803L51.4264 45.2623C51.033 45.6557 50.7871 46.541 50.9018 47.082L52.0658 52.1148C52.8199 55.3934 51.6559 56.8197 50.9018 57.377C50.492 57.6721 49.8363 58 48.9018 58ZM39.6231 51.3115C40.4264 51.3115 41.2297 51.5082 41.869 51.8852L46.7707 54.7869C48.1969 55.6393 49.0986 55.6393 49.4428 55.3934C49.7871 55.1475 50.033 54.2787 49.6723 52.6721L48.5084 47.6393C48.1969 46.2787 48.7051 44.5246 49.6887 43.5246L53.7543 39.459C54.5576 38.6557 54.9182 37.8689 54.7543 37.3279C54.574 36.7869 53.8199 36.3443 52.7051 36.1639L47.4756 35.2951C46.2133 35.082 44.8363 34.0656 44.2625 32.918L41.3772 27.1475C40.8527 26.0984 40.1969 25.4754 39.6231 25.4754C39.0494 25.4754 38.3936 26.0984 37.8854 27.1475L34.9838 32.918C34.41 34.0656 33.033 35.082 31.7707 35.2951L26.5576 36.1639C25.4428 36.3443 24.6887 36.7869 24.5084 37.3279C24.3281 37.8689 24.7051 38.6721 25.5084 39.459L29.574 43.5246C30.5576 44.5082 31.0658 46.2787 30.7543 47.6393L29.5904 52.6721C29.2133 54.2951 29.4756 55.1475 29.8199 55.3934C30.1641 55.6393 31.0494 55.6229 32.492 54.7869L37.3936 51.8852C38.0166 51.5082 38.8199 51.3115 39.6231 51.3115Z" fill="white" />
</svg>