<svg width="80" height="80" viewBox="0 0 80 80" fill="none" xmlns="http://www.w3.org/2000/svg">
  <rect width="80" height="80" rx="40" fill="#333333" />
  <path d="M40.4987 41.5936C35.8758 41.5936 32.1133 37.8311 32.1133 33.2082C32.1133 28.5853 35.8758 24.8228 40.4987 24.8228C45.1216 24.8228 48.8841 28.5853 48.8841 33.2082C48.8841 37.8311 45.1216 41.5936 40.4987 41.5936ZM40.4987 27.0103C37.0862 27.0103 34.3008 29.7957 34.3008 33.2082C34.3008 36.6207 37.0862 39.4061 40.4987 39.4061C43.9112 39.4061 46.6966 36.6207 46.6966 33.2082C46.6966 29.7957 43.9112 27.0103 40.4987 27.0103Z" fill="white" />
  <path d="M53.0268 56.1771C52.4289 56.1771 51.9331 55.6813 51.9331 55.0833C51.9331 50.0521 46.7997 45.9688 40.4997 45.9688C34.1997 45.9688 29.0664 50.0521 29.0664 55.0833C29.0664 55.6813 28.5706 56.1771 27.9727 56.1771C27.3747 56.1771 26.8789 55.6813 26.8789 55.0833C26.8789 48.8563 32.9893 43.7812 40.4997 43.7812C48.0102 43.7812 54.1206 48.8563 54.1206 55.0833C54.1206 55.6813 53.6247 56.1771 53.0268 56.1771Z" fill="white" />
</svg>