<svg width="157" height="130" viewBox="0 0 157 130" fill="none" xmlns="http://www.w3.org/2000/svg">
  <path fill-rule="evenodd" clip-rule="evenodd" d="M136.636 18.1759C124.326 6.77927 104.362 6.77927 92.0512 18.1759L81.8349 27.6272C80.8554 28.5324 79.5269 29.0381 78.1463 29.0381C76.7657 29.0381 75.4374 28.5324 74.4632 27.6272L64.2415 18.1759C51.9308 6.77927 31.9671 6.77927 19.6565 18.1759C7.34065 29.5678 7.34065 48.047 19.6565 59.4437C19.7034 59.487 19.7556 59.5352 19.8025 59.5786L78.1463 118.083L136.49 59.5786C136.537 59.5352 136.589 59.487 136.636 59.4437C148.952 48.047 148.952 29.5678 136.636 18.1759ZM84.6795 11.3678C101.059 -3.78926 127.623 -3.78926 144.008 11.3678C160.362 26.5008 160.387 51.0178 144.086 66.1749L81.9754 128.45C80.9908 129.437 79.5999 130 78.1463 130C76.6928 130 75.3019 129.437 74.3172 128.45L12.2066 66.1749C-4.09471 51.0178 -4.06891 26.5008 12.2845 11.3678C28.6692 -3.78926 55.2337 -3.78926 71.6132 11.3678L78.1463 17.4104L84.6795 11.3678Z" fill="#333333" />
</svg>